<svg xmlns="http://www.w3.org/2000/svg" width="340" height="280" viewBox="0 0 340 280" preserveAspectRatio="xMidYMid meet" style="width: 100%; height: 100%;"><defs><clipPath id="animationMask_By9PvucrHu"><rect width="340" height="280" x="0" y="0"></rect></clipPath></defs><g clip-path="url(#animationMask_By9PvucrHu)"><g transform="matrix(1,0,0,1,0,0)" opacity="0.1" style="user-select: none;"><g opacity="1" transform="matrix(1,0,0,1,187.664,257.048)"><path fill="rgb(0,0,0)" fill-opacity="1" d="M0 0 M95.6,0 C95.6,1.857 52.798,3.364 -0.001,3.364 C-52.797999999999995,3.364 -95.6,1.857 -95.6,0 C-95.6,-1.858 -52.797999999999995,-3.364 -0.001,-3.364 C52.798,-3.364 95.6,-1.858 95.6,0z"></path></g></g><g transform="matrix(0.4,0,0,0.4,79.39999999999999,35.099999999999994)" opacity="1" style="user-select: none;"><g opacity="1" transform="matrix(1,0,0,1,199.199,255.5)"><path fill="rgb(66,133,244)" fill-opacity="1" d="M0 0 M-7200.199,-7129.5 C-7200.199,-7129.5 7199.801,-7129.5 7199.801,-7129.5 C7199.801,-7129.5 7199.801,7270.5 7199.801,7270.5 C7199.801,7270.5 -7200.199,7270.5 -7200.199,7270.5 C-7200.199,7270.5 -7200.199,-7129.5 -7200.199,-7129.5zM0 0 M-7200.199,7270.5 C-7200.199,7270.5 7199.801,7270.5 7199.801,7270.5 C7199.801,7270.5 7199.801,-7129.5 7199.801,-7129.5 C7199.801,-7129.5 -7200.199,-7129.5 -7200.199,-7129.5 C-7200.199,-7129.5 -7200.199,7270.5 -7200.199,7270.5zM0 0 M-197.699,-197.907 C-197.699,-197.907 -197.699,-95.139 -197.699,-95.139 C-197.699,-63.221 -198.188,-31.482 -192.816,0.106 C-186.675,36.209 -174.322,70.99000000000001 -157.409,103.427 C-122.779,169.841 -68.144,223.45100000000002 0.189,254.448 C68.52499999999999,223.45100000000002 123.155,169.841 157.785,103.427 C174.697,70.99000000000001 186.674,36.209 192.815,0.106 C198.188,-31.482 197.301,-63.221 197.301,-95.139 C197.301,-95.139 197.301,-197.907 197.301,-197.907 C197.301,-197.907 -0.2,-254.448 -0.2,-254.448 C-0.2,-254.448 -197.699,-197.907 -197.699,-197.907z"></path><g opacity="1" transform="matrix(1,0,0,1,0,0)"></g></g></g><g transform="matrix(0.72,0,0,0.72,-555.5,-221.83999999999997)" opacity="1" style="user-select: none;"><g opacity="1" transform="matrix(1.01092,0,0,1.00025,992.5,492.487)"><path stroke-linecap="butt" stroke-linejoin="miter" fill-opacity="0" stroke-miterlimit="4" stroke="rgb(255,255,255)" stroke-opacity="1" stroke-width="15" d="M0 0 M-27,16.355 C-27,16.355 -26.75,-38.712 -26.75,-38.712 C-26.75,-54.304 -15.248999999999999,-66.987 0.124,-66.987 C15.497,-66.987 27,-54.304 27,-38.712 C27,-38.712 26.75,16.355 26.75,16.355"></path></g></g><g transform="matrix(0.72,0,0,0.72,-555.5,-227.6)" opacity="1" style="user-select: none;"><g opacity="1" transform="matrix(1,0,0,1,992.5,491.987)"><path fill="rgb(254,254,255)" fill-opacity="1" d="M0 0 M42.695,-11.987 C42.695,-11.987 -42.563,-11.987 -42.563,-11.987 C-47.253,-11.987 -51.5,-8.021 -51.5,-3.333 C-51.5,-3.333 -51.5,64.872 -51.5,64.872 C-51.5,69.561 -47.253,73.013 -42.563,73.013 C-42.563,73.013 42.695,73.013 42.695,73.013 C47.384,73.013 51.5,69.561 51.5,64.872 C51.5,64.872 51.5,-3.334 51.5,-3.334 C51.5,-8.021 47.384,-11.987 42.695,-11.987z"></path></g><g opacity="1" transform="matrix(1,0,0,1,992.5,491.987)"><path fill="rgb(52,102,183)" fill-opacity="1" d="M0 0 M5.5,34.361 C5.5,34.361 5.5,49.013 5.5,49.013 C5.5,49.013 -5.5,49.013 -5.5,49.013 C-5.5,49.013 -5.5,34.361 -5.5,34.361 C-10.5,32.238 -13.929,27.293 -13.929,21.53 C-13.929,13.832 -7.66,7.591 0.038,7.591 C7.736000000000001,7.591 13.981,13.832 13.981,21.53 C13.981,27.293 10.5,32.238 5.5,34.361z"></path></g></g><g transform="matrix(1,0,0,1,-0.75,-0.75)" opacity="1" style="user-select: none;"><g opacity="1" transform="matrix(1,0,0,1,213.011,186.487)"><path fill="rgb(48,99,185)" fill-opacity="1" d="M0 0 M-213.011,-186.487 C-213.011,-186.487 126.989,-186.487 126.989,-186.487 C126.989,-186.487 126.989,93.513 126.989,93.513 C126.989,93.513 -213.011,93.513 -213.011,93.513 C-213.011,93.513 -213.011,-186.487 -213.011,-186.487zM0 0 M-213.011,93.513 C-213.011,93.513 126.989,93.513 126.989,93.513 C126.989,93.513 126.989,-186.487 126.989,-186.487 C126.989,-186.487 -213.011,-186.487 -213.011,-186.487 C-213.011,-186.487 -213.011,93.513 -213.011,93.513zM0 0 M6.801,-1.839 C7.099,-2.472 7.437,-3.081 7.82,-3.659 C8.303,-4.54 8.78,-5.425 9.244,-6.318 C12.581,-12.718 15.472999999999999,-19.349 17.833,-26.161 C-1.9480000000000004,-25.66 -17.833,-9.479000000000001 -17.833,10.423 C-17.833,16.058 -16.556,21.393 -14.282,26.161 C-6.118,17.839000000000002 0.9630000000000001,8.424999999999999 6.801,-1.839z"></path><g opacity="1" transform="matrix(1,0,0,1,0,0)"></g></g><g opacity="1" transform="matrix(1,0,0,1,237,196)"><path fill="rgb(102,102,102)" fill-opacity="1" d="M0 0 M-237,-196 C-237,-196 103,-196 103,-196 C103,-196 103,84 103,84 C103,84 -237,84 -237,84 C-237,84 -237,-196 -237,-196zM0 0 M-237,84 C-237,84 103,84 103,84 C103,84 103,-196 103,-196 C103,-196 -237,-196 -237,-196 C-237,-196 -237,84 -237,84zM0 0 M37,0 C37,20.435 20.435,37 0,37 C-20.435,37 -37,20.435 -37,0 C-37,-20.435 -20.435,-37 0,-37 C20.435,-37 37,-20.435 37,0z"></path><g opacity="1" transform="matrix(1,0,0,1,0,0)"></g></g><g opacity="1" transform="matrix(1,0,0,1,236.979,215.551)"><path fill="rgb(207,215,220)" fill-opacity="1" d="M0 0 M-236.979,-215.551 C-236.979,-215.551 103.021,-215.551 103.021,-215.551 C103.021,-215.551 103.021,64.449 103.021,64.449 C103.021,64.449 -236.979,64.449 -236.979,64.449 C-236.979,64.449 -236.979,-215.551 -236.979,-215.551zM0 0 M-236.979,64.449 C-236.979,64.449 103.021,64.449 103.021,64.449 C103.021,64.449 103.021,-215.551 103.021,-215.551 C103.021,-215.551 -236.979,-215.551 -236.979,-215.551 C-236.979,-215.551 -236.979,64.449 -236.979,64.449zM0 0 M-20.088,11.501 C-15.826,14.267 -10.964,16.185 -5.734,17.002 C-5.734,17.002 5.777,17.002 5.777,17.002 C10.989,16.188 15.837,14.277999999999999 20.088,11.527 C20.088,11.527 20.088,-17.001 20.088,-17.001 C20.088,-17.001 -20.088,-17.001 -20.088,-17.001 C-20.088,-17.001 -20.088,11.501 -20.088,11.501z"></path><g opacity="1" transform="matrix(1,0,0,1,0,0)"></g></g><g opacity="1" transform="matrix(1,0,0,1,237.001,149.454)"><path fill="rgb(255,223,130)" fill-opacity="1" d="M0 0 M-237.001,-149.454 C-237.001,-149.454 102.999,-149.454 102.999,-149.454 C102.999,-149.454 102.999,130.546 102.999,130.546 C102.999,130.546 -237.001,130.546 -237.001,130.546 C-237.001,130.546 -237.001,-149.454 -237.001,-149.454zM0 0 M-237.001,130.546 C-237.001,130.546 102.999,130.546 102.999,130.546 C102.999,130.546 102.999,-149.454 102.999,-149.454 C102.999,-149.454 -237.001,-149.454 -237.001,-149.454 C-237.001,-149.454 -237.001,130.546 -237.001,130.546zM0 0 M20.038,2.218 C20.038,2.218 -20.038,2.218 -20.038,2.218 C-20.038,2.218 -20.038,-2.218 -20.038,-2.218 C-20.038,-2.218 20.038,-2.218 20.038,-2.218 C20.038,-2.218 20.038,2.218 20.038,2.218z"></path><g opacity="1" transform="matrix(1,0,0,1,0,0)"></g></g><g opacity="1" transform="matrix(1,0,0,1,236.978,175.531)"><path fill="rgb(207,215,220)" fill-opacity="1" d="M0 0 M-236.978,-175.531 C-236.978,-175.531 103.022,-175.531 103.022,-175.531 C103.022,-175.531 103.022,104.469 103.022,104.469 C103.022,104.469 -236.978,104.469 -236.978,104.469 C-236.978,104.469 -236.978,-175.531 -236.978,-175.531zM0 0 M-236.978,104.469 C-236.978,104.469 103.022,104.469 103.022,104.469 C103.022,104.469 103.022,-175.531 103.022,-175.531 C103.022,-175.531 -236.978,-175.531 -236.978,-175.531 C-236.978,-175.531 -236.978,104.469 -236.978,104.469zM0 0 M20.088,23.878 C20.088,23.878 -20.088,23.878 -20.088,23.878 C-20.088,23.878 -20.088,-23.878 -20.088,-23.878 C-20.088,-23.878 20.088,-23.878 20.088,-23.878 C20.088,-23.878 20.088,23.878 20.088,23.878z"></path><g opacity="1" transform="matrix(1,0,0,1,0,0)"></g></g><g opacity="1" transform="matrix(1,0,0,1,236.978,192.23)"><path fill="rgb(227,241,252)" fill-opacity="1" d="M0 0 M-236.978,-192.23 C-236.978,-192.23 103.022,-192.23 103.022,-192.23 C103.022,-192.23 103.022,87.77 103.022,87.77 C103.022,87.77 -236.978,87.77 -236.978,87.77 C-236.978,87.77 -236.978,-192.23 -236.978,-192.23zM0 0 M-236.978,87.77 C-236.978,87.77 103.022,87.77 103.022,87.77 C103.022,87.77 103.022,-192.23 103.022,-192.23 C103.022,-192.23 -236.978,-192.23 -236.978,-192.23 C-236.978,-192.23 -236.978,87.77 -236.978,87.77zM0 0 M12.673,6.005 C12.673,6.005 -12.673,6.005 -12.673,6.005 C-12.673,6.005 -12.673,-6.005 -12.673,-6.005 C-12.673,-6.005 12.673,-6.005 12.673,-6.005 C12.673,-6.005 12.673,6.005 12.673,6.005z"></path><g opacity="1" transform="matrix(1,0,0,1,0,0)"></g></g><g opacity="1" transform="matrix(1,0,0,1,236.945,192.1)"><path fill="rgb(102,183,245)" fill-opacity="1" d="M0 0 M-236.945,-192.1 C-236.945,-192.1 103.055,-192.1 103.055,-192.1 C103.055,-192.1 103.055,87.9 103.055,87.9 C103.055,87.9 -236.945,87.9 -236.945,87.9 C-236.945,87.9 -236.945,-192.1 -236.945,-192.1zM0 0 M-236.945,87.9 C-236.945,87.9 103.055,87.9 103.055,87.9 C103.055,87.9 103.055,-192.1 103.055,-192.1 C103.055,-192.1 -236.945,-192.1 -236.945,-192.1 C-236.945,-192.1 -236.945,87.9 -236.945,87.9zM0 0 M11.316,4.777 C11.316,4.777 -11.316,4.777 -11.316,4.777 C-11.316,4.777 -11.316,-4.777 -11.316,-4.777 C-11.316,-4.777 11.316,-4.777 11.316,-4.777 C11.316,-4.777 11.316,4.777 11.316,4.777z"></path><g opacity="1" transform="matrix(1,0,0,1,0,0)"></g></g><g opacity="1" transform="matrix(1,0,0,1,236.915,192.113)"><path fill="rgb(57,146,238)" fill-opacity="1" d="M0 0 M-236.915,-192.113 C-236.915,-192.113 103.085,-192.113 103.085,-192.113 C103.085,-192.113 103.085,87.887 103.085,87.887 C103.085,87.887 -236.915,87.887 -236.915,87.887 C-236.915,87.887 -236.915,-192.113 -236.915,-192.113zM0 0 M-236.915,87.887 C-236.915,87.887 103.085,87.887 103.085,87.887 C103.085,87.887 103.085,-192.113 103.085,-192.113 C103.085,-192.113 -236.915,-192.113 -236.915,-192.113 C-236.915,-192.113 -236.915,87.887 -236.915,87.887zM0 0 M-11.339,-4.623 C-11.339,-4.623 11.367,-4.693 11.367,-4.693 C11.367,-4.693 -11.324,4.693 -11.324,4.693 C-11.324,4.693 -11.367,-4.623 -11.339,-4.623z"></path><g opacity="1" transform="matrix(1,0,0,1,0,0)"></g></g><g opacity="1" transform="matrix(1,0,0,1,236.978,176.786)"><path fill="rgb(227,241,252)" fill-opacity="1" d="M0 0 M-236.978,-176.786 C-236.978,-176.786 103.022,-176.786 103.022,-176.786 C103.022,-176.786 103.022,103.214 103.022,103.214 C103.022,103.214 -236.978,103.214 -236.978,103.214 C-236.978,103.214 -236.978,-176.786 -236.978,-176.786zM0 0 M-236.978,103.214 C-236.978,103.214 103.022,103.214 103.022,103.214 C103.022,103.214 103.022,-176.786 103.022,-176.786 C103.022,-176.786 -236.978,-176.786 -236.978,-176.786 C-236.978,-176.786 -236.978,103.214 -236.978,103.214zM0 0 M12.673,6.005 C12.673,6.005 -12.673,6.005 -12.673,6.005 C-12.673,6.005 -12.673,-6.005 -12.673,-6.005 C-12.673,-6.005 12.673,-6.005 12.673,-6.005 C12.673,-6.005 12.673,6.005 12.673,6.005z"></path><g opacity="1" transform="matrix(1,0,0,1,0,0)"></g></g><g opacity="1" transform="matrix(1,0,0,1,236.945,176.655)"><path fill="rgb(102,183,245)" fill-opacity="1" d="M0 0 M-236.945,-176.655 C-236.945,-176.655 103.055,-176.655 103.055,-176.655 C103.055,-176.655 103.055,103.345 103.055,103.345 C103.055,103.345 -236.945,103.345 -236.945,103.345 C-236.945,103.345 -236.945,-176.655 -236.945,-176.655zM0 0 M-236.945,103.345 C-236.945,103.345 103.055,103.345 103.055,103.345 C103.055,103.345 103.055,-176.655 103.055,-176.655 C103.055,-176.655 -236.945,-176.655 -236.945,-176.655 C-236.945,-176.655 -236.945,103.345 -236.945,103.345zM0 0 M11.316,4.777 C11.316,4.777 -11.316,4.777 -11.316,4.777 C-11.316,4.777 -11.316,-4.777 -11.316,-4.777 C-11.316,-4.777 11.316,-4.777 11.316,-4.777 C11.316,-4.777 11.316,4.777 11.316,4.777z"></path><g opacity="1" transform="matrix(1,0,0,1,0,0)"></g></g><g opacity="1" transform="matrix(1,0,0,1,236.915,176.668)"><path fill="rgb(57,146,238)" fill-opacity="1" d="M0 0 M-236.915,-176.668 C-236.915,-176.668 103.085,-176.668 103.085,-176.668 C103.085,-176.668 103.085,103.332 103.085,103.332 C103.085,103.332 -236.915,103.332 -236.915,103.332 C-236.915,103.332 -236.915,-176.668 -236.915,-176.668zM0 0 M-236.915,103.332 C-236.915,103.332 103.085,103.332 103.085,103.332 C103.085,103.332 103.085,-176.668 103.085,-176.668 C103.085,-176.668 -236.915,-176.668 -236.915,-176.668 C-236.915,-176.668 -236.915,103.332 -236.915,103.332zM0 0 M-11.339,-4.623 C-11.339,-4.623 11.367,-4.693 11.367,-4.693 C11.367,-4.693 -11.324,4.693 -11.324,4.693 C-11.324,4.693 -11.367,-4.623 -11.339,-4.623z"></path><g opacity="1" transform="matrix(1,0,0,1,0,0)"></g></g><g opacity="1" transform="matrix(1,0,0,1,236.978,161.34)"><path fill="rgb(227,241,252)" fill-opacity="1" d="M0 0 M-236.978,-161.34 C-236.978,-161.34 103.022,-161.34 103.022,-161.34 C103.022,-161.34 103.022,118.66 103.022,118.66 C103.022,118.66 -236.978,118.66 -236.978,118.66 C-236.978,118.66 -236.978,-161.34 -236.978,-161.34zM0 0 M-236.978,118.66 C-236.978,118.66 103.022,118.66 103.022,118.66 C103.022,118.66 103.022,-161.34 103.022,-161.34 C103.022,-161.34 -236.978,-161.34 -236.978,-161.34 C-236.978,-161.34 -236.978,118.66 -236.978,118.66zM0 0 M12.673,6.005 C12.673,6.005 -12.673,6.005 -12.673,6.005 C-12.673,6.005 -12.673,-6.005 -12.673,-6.005 C-12.673,-6.005 12.673,-6.005 12.673,-6.005 C12.673,-6.005 12.673,6.005 12.673,6.005z"></path><g opacity="1" transform="matrix(1,0,0,1,0,0)"></g></g><g opacity="1" transform="matrix(1,0,0,1,236.945,161.21)"><path fill="rgb(102,183,245)" fill-opacity="1" d="M0 0 M-236.945,-161.21 C-236.945,-161.21 103.055,-161.21 103.055,-161.21 C103.055,-161.21 103.055,118.79 103.055,118.79 C103.055,118.79 -236.945,118.79 -236.945,118.79 C-236.945,118.79 -236.945,-161.21 -236.945,-161.21zM0 0 M-236.945,118.79 C-236.945,118.79 103.055,118.79 103.055,118.79 C103.055,118.79 103.055,-161.21 103.055,-161.21 C103.055,-161.21 -236.945,-161.21 -236.945,-161.21 C-236.945,-161.21 -236.945,118.79 -236.945,118.79zM0 0 M11.316,4.777 C11.316,4.777 -11.316,4.777 -11.316,4.777 C-11.316,4.777 -11.316,-4.777 -11.316,-4.777 C-11.316,-4.777 11.316,-4.777 11.316,-4.777 C11.316,-4.777 11.316,4.777 11.316,4.777z"></path><g opacity="1" transform="matrix(1,0,0,1,0,0)"></g></g><g opacity="1" transform="matrix(1,0,0,1,236.915,161.223)"><path fill="rgb(57,146,238)" fill-opacity="1" d="M0 0 M-236.915,-161.223 C-236.915,-161.223 103.085,-161.223 103.085,-161.223 C103.085,-161.223 103.085,118.777 103.085,118.777 C103.085,118.777 -236.915,118.777 -236.915,118.777 C-236.915,118.777 -236.915,-161.223 -236.915,-161.223zM0 0 M-236.915,118.777 C-236.915,118.777 103.085,118.777 103.085,118.777 C103.085,118.777 103.085,-161.223 103.085,-161.223 C103.085,-161.223 -236.915,-161.223 -236.915,-161.223 C-236.915,-161.223 -236.915,118.777 -236.915,118.777zM0 0 M-11.339,-4.623 C-11.339,-4.623 11.367,-4.693 11.367,-4.693 C11.367,-4.693 -11.324,4.693 -11.324,4.693 C-11.324,4.693 -11.367,-4.623 -11.339,-4.623z"></path><g opacity="1" transform="matrix(1,0,0,1,0,0)"></g></g><g opacity="1" transform="matrix(1,0,0,1,237,230.538)"><path fill="rgb(175,189,197)" fill-opacity="1" d="M0 0 M-237,-230.538 C-237,-230.538 103,-230.538 103,-230.538 C103,-230.538 103,49.462 103,49.462 C103,49.462 -237,49.462 -237,49.462 C-237,49.462 -237,-230.538 -237,-230.538zM0 0 M-237,49.462 C-237,49.462 103,49.462 103,49.462 C103,49.462 103,-230.538 103,-230.538 C103,-230.538 -237,-230.538 -237,-230.538 C-237,-230.538 -237,49.462 -237,49.462zM0 0 M17.656,-2.014 C17.656,-2.014 -17.656,-2.014 -17.656,-2.014 C-14.014999999999999,-0.03399999999999981 -10.004999999999999,1.3499999999999996 -5.756,2.014 C-5.756,2.014 5.757,2.014 5.757,2.014 C10.006,1.3499999999999996 14.014999999999999,-0.03399999999999981 17.656,-2.014z"></path><g opacity="1" transform="matrix(1,0,0,1,0,0)"></g></g><g opacity="1" transform="matrix(1,0,0,1,236.978,205.134)"><path fill="rgb(255,223,130)" fill-opacity="1" d="M0 0 M-236.978,-205.134 C-236.978,-205.134 103.022,-205.134 103.022,-205.134 C103.022,-205.134 103.022,74.866 103.022,74.866 C103.022,74.866 -236.978,74.866 -236.978,74.866 C-236.978,74.866 -236.978,-205.134 -236.978,-205.134zM0 0 M-236.978,74.866 C-236.978,74.866 103.022,74.866 103.022,74.866 C103.022,74.866 103.022,-205.134 103.022,-205.134 C103.022,-205.134 -236.978,-205.134 -236.978,-205.134 C-236.978,-205.134 -236.978,74.866 -236.978,74.866zM0 0 M20.088,2.014 C20.088,2.014 -20.088,2.014 -20.088,2.014 C-20.088,2.014 -20.088,-2.014 -20.088,-2.014 C-20.088,-2.014 20.088,-2.014 20.088,-2.014 C20.088,-2.014 20.088,2.014 20.088,2.014z"></path><g opacity="1" transform="matrix(1,0,0,1,0,0)"></g></g><g opacity="1" transform="matrix(1,0,0,1,237.027,223.123)"><path fill="rgb(227,241,252)" fill-opacity="1" d="M0 0 M-237.027,-223.123 C-237.027,-223.123 102.973,-223.123 102.973,-223.123 C102.973,-223.123 102.973,56.877 102.973,56.877 C102.973,56.877 -237.027,56.877 -237.027,56.877 C-237.027,56.877 -237.027,-223.123 -237.027,-223.123zM0 0 M-237.027,56.877 C-237.027,56.877 102.973,56.877 102.973,56.877 C102.973,56.877 102.973,-223.123 102.973,-223.123 C102.973,-223.123 -237.027,-223.123 -237.027,-223.123 C-237.027,-223.123 -237.027,56.877 -237.027,56.877zM0 0 M-12.731,7.638 C-8.769,9.086 -4.49,9.877 -0.027,9.877 C4.457,9.877 8.754,9.078 12.732,7.617 C12.732,7.617 12.732,-9.877 12.732,-9.877 C12.732,-9.877 -12.731,-9.877 -12.731,-9.877 C-12.731,-9.877 -12.731,7.638 -12.731,7.638z"></path><g opacity="1" transform="matrix(1,0,0,1,0,0)"></g></g><g opacity="1" transform="matrix(1,0,0,1,237.003,223.705)"><path fill="rgb(102,183,245)" fill-opacity="1" d="M0 0 M-237.003,-223.705 C-237.003,-223.705 102.997,-223.705 102.997,-223.705 C102.997,-223.705 102.997,56.295 102.997,56.295 C102.997,56.295 -237.003,56.295 -237.003,56.295 C-237.003,56.295 -237.003,-223.705 -237.003,-223.705zM0 0 M-237.003,56.295 C-237.003,56.295 102.997,56.295 102.997,56.295 C102.997,56.295 102.997,-223.705 102.997,-223.705 C102.997,-223.705 -237.003,-223.705 -237.003,-223.705 C-237.003,-223.705 -237.003,56.295 -237.003,56.295zM0 0 M-11.553,7.447 C-7.918000000000001,8.64 -4.038,9.296 -0.003,9.296 C4.034,9.296 7.9159999999999995,8.639 11.552,7.445 C11.552,7.445 11.552,-9.296 11.552,-9.296 C11.552,-9.296 -11.553,-9.296 -11.553,-9.296 C-11.553,-9.296 -11.553,7.447 -11.553,7.447z"></path><g opacity="1" transform="matrix(1,0,0,1,0,0)"></g></g><g opacity="1" transform="matrix(1,0,0,1,237.155,223.705)"><path fill="rgb(32,138,228)" fill-opacity="1" d="M0 0 M-237.155,-223.705 C-237.155,-223.705 102.845,-223.705 102.845,-223.705 C102.845,-223.705 102.845,56.295 102.845,56.295 C102.845,56.295 -237.155,56.295 -237.155,56.295 C-237.155,56.295 -237.155,-223.705 -237.155,-223.705zM0 0 M-237.155,56.295 C-237.155,56.295 102.845,56.295 102.845,56.295 C102.845,56.295 102.845,-223.705 102.845,-223.705 C102.845,-223.705 -237.155,-223.705 -237.155,-223.705 C-237.155,-223.705 -237.155,56.295 -237.155,56.295zM0 0 M-1.14,9.275 C-0.8119999999999998,9.284 -0.485,9.296 -0.155,9.296 C0.279,9.296 0.7109999999999999,9.284 1.14,9.269 C1.14,9.269 1.14,-9.296 1.14,-9.296 C1.14,-9.296 -1.14,-9.296 -1.14,-9.296 C-1.14,-9.296 -1.14,9.275 -1.14,9.275z"></path><g opacity="1" transform="matrix(1,0,0,1,0,0)"></g></g><g opacity="1" transform="matrix(1,0,0,1,236.987,219.803)"><path fill="rgb(57,146,238)" fill-opacity="1" d="M0 0 M-236.987,-219.803 C-236.987,-219.803 103.013,-219.803 103.013,-219.803 C103.013,-219.803 103.013,60.197 103.013,60.197 C103.013,60.197 -236.987,60.197 -236.987,60.197 C-236.987,60.197 -236.987,-219.803 -236.987,-219.803zM0 0 M-236.987,60.197 C-236.987,60.197 103.013,60.197 103.013,60.197 C103.013,60.197 103.013,-219.803 103.013,-219.803 C103.013,-219.803 -236.987,-219.803 -236.987,-219.803 C-236.987,-219.803 -236.987,60.197 -236.987,60.197zM0 0 M-11.533,-5.319 C-11.533,-5.319 11.561,-5.398 11.561,-5.398 C11.561,-5.398 -11.518,5.398 -11.518,5.398 C-11.518,5.398 -11.561,-5.319 -11.533,-5.319z"></path><g opacity="1" transform="matrix(1,0,0,1,0,0)"></g></g><g opacity="1" transform="matrix(1,0,0,1,237.155,217.354)"><path fill="rgb(18,110,223)" fill-opacity="1" d="M0 0 M-237.155,-217.354 C-237.155,-217.354 102.845,-217.354 102.845,-217.354 C102.845,-217.354 102.845,62.646 102.845,62.646 C102.845,62.646 -237.155,62.646 -237.155,62.646 C-237.155,62.646 -237.155,-217.354 -237.155,-217.354zM0 0 M-237.155,62.646 C-237.155,62.646 102.845,62.646 102.845,62.646 C102.845,62.646 102.845,-217.354 102.845,-217.354 C102.845,-217.354 -237.155,-217.354 -237.155,-217.354 C-237.155,-217.354 -237.155,62.646 -237.155,62.646zM0 0 M-1.14,2.914 C-1.14,2.914 1.14,1.848 1.14,1.848 C1.14,1.848 1.14,-2.914 1.14,-2.914 C1.14,-2.914 -1.14,-2.905 -1.14,-2.905 C-1.14,-2.905 -1.14,2.914 -1.14,2.914z"></path><g opacity="1" transform="matrix(1,0,0,1,0,0)"></g></g><g opacity="1" transform="matrix(1,0,0,1,232.951,223.734)"><path fill="rgb(32,138,228)" fill-opacity="1" d="M0 0 M-232.951,-223.734 C-232.951,-223.734 107.049,-223.734 107.049,-223.734 C107.049,-223.734 107.049,56.266 107.049,56.266 C107.049,56.266 -232.951,56.266 -232.951,56.266 C-232.951,56.266 -232.951,-223.734 -232.951,-223.734zM0 0 M-232.951,56.266 C-232.951,56.266 107.049,56.266 107.049,56.266 C107.049,56.266 107.049,-223.734 107.049,-223.734 C107.049,-223.734 -232.951,-223.734 -232.951,-223.734 C-232.951,-223.734 -232.951,56.266 -232.951,56.266zM0 0 M0.984,0.001 C0.984,0.544 0.544,0.982 0.001,0.982 C-0.543,0.982 -0.984,0.544 -0.984,0.001 C-0.984,-0.543 -0.543,-0.982 0.001,-0.982 C0.544,-0.982 0.984,-0.543 0.984,0.001z"></path><g opacity="1" transform="matrix(1,0,0,1,0,0)"></g></g><g opacity="1" transform="matrix(1,0,0,1,241.388,223.734)"><path fill="rgb(32,138,228)" fill-opacity="1" d="M0 0 M-241.388,-223.734 C-241.388,-223.734 98.612,-223.734 98.612,-223.734 C98.612,-223.734 98.612,56.266 98.612,56.266 C98.612,56.266 -241.388,56.266 -241.388,56.266 C-241.388,56.266 -241.388,-223.734 -241.388,-223.734zM0 0 M-241.388,56.266 C-241.388,56.266 98.612,56.266 98.612,56.266 C98.612,56.266 98.612,-223.734 98.612,-223.734 C98.612,-223.734 -241.388,-223.734 -241.388,-223.734 C-241.388,-223.734 -241.388,56.266 -241.388,56.266zM0 0 M0.984,0.001 C0.984,0.544 0.544,0.982 0.001,0.982 C-0.542,0.982 -0.984,0.544 -0.984,0.001 C-0.984,-0.543 -0.542,-0.982 0.001,-0.982 C0.544,-0.982 0.984,-0.543 0.984,0.001z"></path><g opacity="1" transform="matrix(1,0,0,1,0,0)"></g></g></g></g></svg>