<svg width="15" height="15" viewBox="0 0 15 15" fill="none" xmlns="http://www.w3.org/2000/svg">
<path d="M0 0V15H15V0H0ZM12.4554 3.58259L11.6518 4.35268C11.5848 4.38616 11.5513 4.48661 11.5513 4.55357V10.2455C11.5513 10.3125 11.5848 10.4129 11.6518 10.4464L12.4219 11.2165V11.3839H8.47098V11.2165L9.30804 10.4464C9.375 10.346 9.375 10.346 9.375 10.2121V5.625L7.09821 11.3839H6.79688L4.18527 5.625V9.47545C4.15179 9.64286 4.21875 9.81027 4.3192 9.91071L5.39062 11.2165V11.3839H2.37723V11.2165L3.41518 9.91071C3.54911 9.81027 3.58259 9.64286 3.54911 9.47545V5.02232C3.58259 4.92188 3.51562 4.78795 3.44866 4.6875L2.51116 3.58259V3.3817H5.42411L7.66741 8.33705L9.67634 3.41518H12.4554V3.58259Z" fill="black"/>
</svg>
