<svg width="17" height="17" viewBox="0 0 17 17" fill="none" xmlns="http://www.w3.org/2000/svg">
<path d="M6.61492 10.2137C7.09476 10.2137 7.47177 9.83669 7.47177 9.35686C7.47177 8.91129 7.09476 8.5 6.61492 8.5C6.13508 8.5 5.75806 8.91129 5.75806 9.35686C5.75806 9.83669 6.13508 10.2137 6.61492 10.2137ZM17 8.5C17 3.80444 13.1956 0 8.5 0C3.80444 0 0 3.80444 0 8.5C0 13.1956 3.80444 17 8.5 17C13.1956 17 17 13.1956 17 8.5ZM12.4415 7.09476C13.6411 7.09476 14.0181 8.70565 12.9556 9.25403C12.9899 9.4254 13.0242 9.59677 13.0242 9.80242C13.0242 11.5847 11.002 13.0585 8.5 13.0585C5.99798 13.0585 3.97581 11.5847 3.97581 9.80242C3.97581 9.59677 3.97581 9.4254 4.01008 9.25403C2.94758 8.70565 3.3246 7.09476 4.52419 7.09476C4.83266 7.09476 5.14113 7.23185 5.34677 7.4375C6.10081 6.92339 7.12903 6.58065 8.26008 6.54637L8.94556 3.56452C8.94556 3.46169 9.04839 3.39315 9.15121 3.42742L11.2762 3.87298C11.4133 3.59879 11.6875 3.42742 12.0302 3.42742C12.5101 3.42742 12.8871 3.80444 12.8871 4.28427C12.8871 4.72984 12.5101 5.10685 12.0302 5.10685C11.5504 5.10685 11.1734 4.72984 11.1734 4.28427L9.28831 3.83871L8.67137 6.54637C9.83669 6.58065 10.8649 6.92339 11.619 7.4375C11.8589 7.23185 12.1331 7.09476 12.4415 7.09476ZM10.0766 11.0706C9.45968 11.7218 7.47177 11.6875 6.88911 11.0706C6.82056 11.002 6.68347 11.002 6.58065 11.0706C6.5121 11.1734 6.5121 11.3105 6.58065 11.379C7.36895 12.1673 9.59677 12.1673 10.3851 11.379C10.4536 11.3105 10.4536 11.1734 10.3851 11.0706C10.2823 11.002 10.1794 11.002 10.0766 11.0706ZM10.3508 8.5C9.87097 8.5 9.49395 8.91129 9.49395 9.35686C9.49395 9.83669 9.90524 10.2137 10.3508 10.2137C10.8306 10.2137 11.2077 9.83669 11.2077 9.35686C11.2077 8.91129 10.8306 8.5 10.3508 8.5Z" fill="black"/>
</svg>
