<svg width="16" height="15" viewBox="0 0 16 15" fill="none" xmlns="http://www.w3.org/2000/svg">
<path d="M5.33928 7.48324C5.33928 8.88949 6.55356 9.9944 8.01785 9.9944C9.48213 9.9944 10.6607 8.88949 10.6607 7.48324C10.6607 6.11047 9.48213 5.00556 8.01785 5.00556C6.51785 5.00556 5.33928 6.11047 5.33928 7.48324Z" fill="white"/>
<path fill-rule="evenodd" clip-rule="evenodd" d="M14.6607 1.25558C15.5893 2.12612 15.875 3.19755 15.9464 4.4029C16.0179 5.64174 16.0179 9.35826 15.9464 10.5971C15.875 11.8025 15.5893 12.8404 14.6607 13.7444C13.7321 14.615 12.5893 14.8828 11.3036 14.9498C9.98214 15.0167 6.01786 15.0167 4.69643 14.9498C3.41071 14.8828 2.30357 14.615 1.33929 13.7444C0.410714 12.8404 0.125 11.8025 0.0535714 10.5971C-0.0178571 9.35826 -0.0178571 5.64174 0.0535714 4.4029C0.125 3.19755 0.410714 2.12612 1.33929 1.25558C2.30357 0.385045 3.41071 0.117188 4.69643 0.0502232C6.01786 -0.0167411 9.98214 -0.0167411 11.3036 0.0502232C12.5893 0.117188 13.7321 0.385045 14.6607 1.25558ZM3.91071 7.48324C3.91071 5.37387 5.73213 3.6328 8.01785 3.6328C10.2678 3.6328 12.125 5.37387 12.125 7.48324C12.125 9.6261 10.2678 11.3337 8.01785 11.3337C5.73213 11.3337 3.91071 9.6261 3.91071 7.48324ZM12.2678 2.59485C12.8036 2.59485 13.2321 2.99663 13.2321 3.49887C13.2321 4.0011 12.8036 4.40288 12.2678 4.40288C11.7321 4.40288 11.3036 4.0011 11.3036 3.49887C11.3036 2.99663 11.7321 2.59485 12.2678 2.59485Z" fill="black"/>
</svg>
