<svg width="20" height="17" viewBox="0 0 20 17" fill="none" xmlns="http://www.w3.org/2000/svg">
<path d="M17.9648 4.21928C18.7476 3.60482 19.4521 2.86747 20 2.00723C19.2955 2.33494 18.4736 2.58072 17.6517 2.66265C18.5127 2.13012 19.1389 1.31084 19.4521 0.286747C18.6693 0.778313 17.7691 1.14699 16.8689 1.35181C16.0861 0.491566 15.0294 0 13.8552 0C11.5851 0 9.7456 1.9253 9.7456 4.3012C9.7456 4.62892 9.78474 4.95663 9.86301 5.28434C6.45793 5.07952 3.40509 3.35904 1.36986 0.778313C1.01761 1.39277 0.821918 2.13012 0.821918 2.9494C0.821918 4.4241 1.52642 5.73494 2.66145 6.51325C1.99609 6.47229 1.33072 6.30843 0.782779 5.98072V6.02169C0.782779 8.11084 2.19178 9.83133 4.07045 10.241C3.75734 10.3229 3.36595 10.4048 3.0137 10.4048C2.73973 10.4048 2.50489 10.3639 2.23092 10.3229C2.73973 12.0434 4.26614 13.2723 6.06654 13.3133C4.65753 14.4602 2.89628 15.1566 0.978474 15.1566C0.626223 15.1566 0.313112 15.1157 0 15.0747C1.80039 16.3036 3.95303 17 6.30137 17C13.8552 17 17.9648 10.4867 17.9648 4.79277C17.9648 4.58795 17.9648 4.4241 17.9648 4.21928Z" fill="black"/>
</svg>
