<svg width="17" height="18" viewBox="0 0 17 18" fill="none" xmlns="http://www.w3.org/2000/svg">
<path d="M13.7516 14.118C12.7196 15.0975 11.2185 15.7096 10.0302 15.8014C9.1858 15.8932 8.31018 15.8932 7.46582 15.8014C6.21493 15.6484 5.30803 15.3117 4.40113 14.975C4.83894 14.5465 5.30803 13.965 5.49566 13.4447C5.62075 13.1386 5.58948 12.8019 5.46439 12.5265C4.49495 10.5983 4.93276 8.30274 6.49638 6.803C7.62218 5.70115 9.1858 5.21144 10.7807 5.39508C11.9378 5.54812 13.001 6.03783 13.8454 6.83361C15.8468 8.82305 15.7843 12.1592 13.7516 14.118ZM14.9712 5.57872C14.2519 4.87477 13.4076 4.35445 12.5007 4.01778C13.0323 2.51804 14.9086 1.96711 14.9086 1.96711C14.9086 1.96711 10.5931 -0.23658 5.83966 0.651019C4.24477 0.895874 2.71242 1.84469 1.61789 3.09957C-0.79008 5.82358 -0.477357 9.95551 2.33716 12.2816C2.77497 12.6489 3.74441 13.1998 3.74441 13.2304C3.11896 14.822 1.08626 15.2505 1.08626 15.2505C1.08626 15.2505 3.77568 16.9033 7.37201 17.3318C8.34145 17.4542 9.34216 17.4848 10.3742 17.3624C12.0316 17.2399 13.689 16.3523 14.9712 15.1587C17.6606 12.5265 17.6919 8.24152 14.9712 5.57872Z" fill="black"/>
</svg>
