<svg width="19" height="13" viewBox="0 0 19 13" fill="none" xmlns="http://www.w3.org/2000/svg">
<path d="M18.5832 2.0651C18.3748 1.2526 17.7148 0.609375 16.9159 0.40625C15.4223 0 9.51737 0 9.51737 0C9.51737 0 3.5777 0 2.0841 0.40625C1.28519 0.609375 0.625229 1.2526 0.416819 2.0651C0 3.48698 0 6.53385 0 6.53385C0 6.53385 0 9.54688 0.416819 11.0026C0.625229 11.8151 1.28519 12.4245 2.0841 12.6276C3.5777 13 9.51737 13 9.51737 13C9.51737 13 15.4223 13 16.9159 12.6276C17.7148 12.4245 18.3748 11.8151 18.5832 11.0026C19 9.54688 19 6.53385 19 6.53385C19 6.53385 19 3.48698 18.5832 2.0651ZM7.57221 9.27604V3.79167L12.5046 6.53385L7.57221 9.27604Z" fill="black"/>
</svg>
